<svg class="nc-icon outline" xmlns="http://www.w3.org/2000/svg" xmlns:xlink="http://www.w3.org/1999/xlink" x="0px" y="0px" width="48px" height="48px" viewBox="0 0 48 48"><g transform="translate(0, 0)">
<line fill="none" stroke="#444444" stroke-width="2" stroke-linecap="square" stroke-miterlimit="10" x1="2" y1="10" x2="46" y2="10" stroke-linejoin="miter"></line>
<line fill="none" stroke="#444444" stroke-width="2" stroke-linecap="square" stroke-miterlimit="10" x1="2" y1="18" x2="46" y2="18" stroke-linejoin="miter"></line>
<path fill="none" stroke="#444444" stroke-width="2" stroke-linecap="square" stroke-miterlimit="10" d="M26,34H5c-1.7,0-3-1.3-3-3
	V5c0-1.7,1.3-3,3-3h27h11c1.7,0,3,1.3,3,3v25c0,2.2-1.8,4-4,4" stroke-linejoin="miter"></path>
<line fill="none" stroke="#444444" stroke-width="2" stroke-linecap="square" stroke-miterlimit="10" x1="10" y1="26" x2="20" y2="26" stroke-linejoin="miter"></line>
<rect data-color="color-2" x="26" y="32" fill="none" stroke="#444444" stroke-width="2" stroke-linecap="square" stroke-miterlimit="10" width="16" height="14" stroke-linejoin="miter"></rect>
<path data-color="color-2" fill="none" stroke="#444444" stroke-width="2" stroke-linecap="square" stroke-miterlimit="10" d="M30,32v-4
	c0-2.2,1.8-4,4-4l0,0c2.2,0,4,1.8,4,4v4" stroke-linejoin="miter"></path>
<line data-color="color-2" fill="none" stroke="#444444" stroke-width="2" stroke-linecap="square" stroke-miterlimit="10" x1="34" y1="38" x2="34" y2="40" stroke-linejoin="miter"></line>
</g></svg>