<svg class="nc-icon outline" xmlns="http://www.w3.org/2000/svg" xmlns:xlink="http://www.w3.org/1999/xlink" x="0px" y="0px" width="48px" height="48px" viewBox="0 0 48 48">
<g transform="translate(0, 0)">
<path data-cap="butt" fill="none" stroke="#444444" stroke-width="2" stroke-miterlimit="10" d="M6,25.1C2.3,19.6,2.8,12,7.7,7.1
	c4.4-4.4,10.9-5.3,16.1-2.7" stroke-linejoin="miter" stroke-linecap="butt"></path>
<path fill="none" stroke="#444444" stroke-width="2" stroke-linecap="square" stroke-miterlimit="10" d="M40.3,27.2
	c5.5-5.5,5.5-14.5,0-20s-14.5-5.5-20,0l-10,10c0,0,4.8,3.2,10-2c0,0,8.9,5,13.9,0" stroke-linejoin="miter"></path>
<path data-cap="butt" fill="none" stroke="#444444" stroke-width="2" stroke-miterlimit="10" d="M33.1,28.6l3.6,3.6
	c1.1,1.1,2.9,1.1,4,0l0.1-0.1c1.1-1.1,1.1-2.8,0.1-3.9l-10.4-11" stroke-linejoin="miter" stroke-linecap="butt"></path>
<path fill="none" stroke="#444444" stroke-width="2" stroke-linecap="square" stroke-miterlimit="10" d="M27.7,7.1" stroke-linejoin="miter"></path>
<path data-cap="butt" fill="none" stroke="#444444" stroke-width="2" stroke-miterlimit="10" d="M21.9,41.3l2.8,2.8
	c1.1,1.1,2.9,1.1,4,0l0,0c1.1-1.1,1.1-2.9,0-4l-3.6-3.6" stroke-linejoin="miter" stroke-linecap="butt"></path>
<path data-cap="butt" fill="none" stroke="#444444" stroke-width="2" stroke-miterlimit="10" d="M24.6,36.1l4.1,4.1
	c1.1,1.1,2.9,1.1,4,0l0,0c1.1-1.1,1.1-2.9,0-4l-3.6-3.6" stroke-linejoin="miter" stroke-linecap="butt"></path>
<path fill="none" stroke="#444444" stroke-width="2" stroke-linecap="square" stroke-miterlimit="10" d="M29.1,32.6l3.6,3.6
	c1.1,1.1,2.9,1.1,4,0l0,0c1.1-1.1,1.1-2.9,0-4l-3.6-3.6" stroke-linejoin="miter"></path>
<path fill="none" stroke="#444444" stroke-width="2" stroke-linecap="square" stroke-miterlimit="10" d="M24,35.2L24,35.2
	c1.1,1.1,1.1,2.9,0,4l-3,3c-1.1,1.1-2.9,1.1-4,0l0,0c-1.1-1.1-1.1-2.9,0-4l3-3C21.1,34.1,22.9,34.1,24,35.2z" stroke-linejoin="miter"></path>
<path fill="none" stroke="#444444" stroke-width="2" stroke-linecap="square" stroke-miterlimit="10" d="M16,27.2L16,27.2
	c1.1,1.1,1.1,2.9,0,4l-3,3c-1.1,1.1-2.9,1.1-4,0l0,0c-1.1-1.1-1.1-2.9,0-4l3-3C13.1,26.1,14.9,26.1,16,27.2z" stroke-linejoin="miter"></path>
<path fill="none" stroke="#444444" stroke-width="2" stroke-linecap="square" stroke-miterlimit="10" d="M12,23.2L12,23.2
	c1.1,1.1,1.1,2.9,0,4l-3,3c-1.1,1.1-2.9,1.1-4,0l0,0c-1.1-1.1-1.1-2.9,0-4l3-3C9.1,22.1,10.9,22.1,12,23.2z" stroke-linejoin="miter"></path>
<path fill="none" stroke="#444444" stroke-width="2" stroke-linecap="square" stroke-miterlimit="10" d="M20,31.2L20,31.2
	c1.1,1.1,1.1,2.9,0,4l-3,3c-1.1,1.1-2.9,1.1-4,0l0,0c-1.1-1.1-1.1-2.9,0-4l3-3C17.1,30.1,18.9,30.1,20,31.2z" stroke-linejoin="miter"></path>
</g>
</svg>