<svg class="nc-icon outline" xmlns="http://www.w3.org/2000/svg" xmlns:xlink="http://www.w3.org/1999/xlink" x="0px" y="0px" width="48px" height="48px" viewBox="0 0 48 48"><g transform="translate(0, 0)">
<polyline fill="none" stroke="#444444" stroke-width="2" stroke-linecap="square" stroke-miterlimit="10" points="46,16 46,46 2,46 
	2,16 " stroke-linejoin="miter"></polyline>
<rect x="2" y="6" fill="none" stroke="#444444" stroke-width="2" stroke-linecap="square" stroke-miterlimit="10" width="44" height="10" stroke-linejoin="miter"></rect>
<line data-color="color-2" fill="none" stroke="#444444" stroke-width="2" stroke-linecap="square" stroke-miterlimit="10" x1="24" y1="2" x2="24" y2="10" stroke-linejoin="miter"></line>
<line data-color="color-2" fill="none" stroke="#444444" stroke-width="2" stroke-linecap="square" stroke-miterlimit="10" x1="12" y1="2" x2="12" y2="10" stroke-linejoin="miter"></line>
<line data-color="color-2" fill="none" stroke="#444444" stroke-width="2" stroke-linecap="square" stroke-miterlimit="10" x1="36" y1="2" x2="36" y2="10" stroke-linejoin="miter"></line>
<polygon data-color="color-2" fill="none" stroke="#444444" stroke-width="2" stroke-linecap="square" stroke-miterlimit="10" points="
	28,22 20,22 12,22 12,30 12,38 20,38 28,38 28,30 36,30 36,22 " stroke-linejoin="miter"></polygon>
<line data-color="color-2" fill="none" stroke="#444444" stroke-width="2" stroke-linecap="square" stroke-miterlimit="10" x1="20" y1="22" x2="20" y2="38" stroke-linejoin="miter"></line>
<polyline data-color="color-2" fill="none" stroke="#444444" stroke-width="2" stroke-linecap="square" stroke-miterlimit="10" points="
	28,22 28,30 12,30 " stroke-linejoin="miter"></polyline>
</g></svg>