<svg class="nc-icon outline" xmlns="http://www.w3.org/2000/svg" xmlns:xlink="http://www.w3.org/1999/xlink" x="0px" y="0px" width="48px" height="48px" viewBox="0 0 48 48"><g transform="translate(0, 0)">
<polyline fill="none" stroke="#444444" stroke-width="2" stroke-linecap="square" stroke-miterlimit="10" points="42,18 42,46 6,46 
	6,18 " stroke-linejoin="miter"></polyline>
<rect x="2" y="10" fill="none" stroke="#444444" stroke-width="2" stroke-linecap="square" stroke-miterlimit="10" width="44" height="8" stroke-linejoin="miter"></rect>
<path data-color="color-2" fill="none" stroke="#444444" stroke-width="2" stroke-linecap="square" stroke-miterlimit="10" d="M12,6
	c0-2.2,1.8-4,4-4c5.9,0,8,8,8,8s-5.8,0-8,0S12,8.2,12,6z" stroke-linejoin="miter"></path>
<path data-color="color-2" fill="none" stroke="#444444" stroke-width="2" stroke-linecap="square" stroke-miterlimit="10" d="M36,6
	c0-2.2-1.8-4-4-4c-5.9,0-8,8-8,8s5.8,0,8,0S36,8.2,36,6z" stroke-linejoin="miter"></path>
<line data-color="color-2" fill="none" stroke="#444444" stroke-width="2" stroke-linecap="square" stroke-miterlimit="10" x1="20" y1="10" x2="20" y2="46" stroke-linejoin="miter"></line>
<line data-color="color-2" fill="none" stroke="#444444" stroke-width="2" stroke-linecap="square" stroke-miterlimit="10" x1="28" y1="10" x2="28" y2="46" stroke-linejoin="miter"></line>
</g></svg>